<?xml version="1.0" standalone="no"?>
<!DOCTYPE svg PUBLIC "-//W3C//DTD SVG 20010904//EN"
 "http://www.w3.org/TR/2001/REC-SVG-20010904/DTD/svg10.dtd">
<svg version="1.0" xmlns="http://www.w3.org/2000/svg"
 width="310.000000pt" height="169.000000pt" viewBox="0 0 310.000000 169.000000"
 preserveAspectRatio="xMidYMid meet">

<g transform="translate(0.000000,169.000000) scale(0.100000,-0.100000)"
fill="currentColor" stroke="none">
<path d="M1293 1509 c-121 -11 -305 -52 -423 -96 -149 -55 -375 -177 -503
-272 l-58 -42 3 -57 3 -57 118 -3 117 -3 0 126 0 125 207 0 206 0 83 60 c194
141 361 177 597 129 173 -35 400 -137 570 -256 l78 -54 36 22 36 23 -34 28
c-74 63 -218 153 -323 204 -128 62 -289 106 -444 123 -113 12 -134 12 -269 0z"/>
<path d="M1383 1350 c-118 -21 -239 -90 -305 -174 -171 -216 -156 -477 37
-672 60 -61 82 -76 155 -105 79 -31 93 -34 195 -34 102 0 116 3 195 34 72 29
95 44 151 101 77 78 136 186 146 268 l6 52 46 0 c45 0 46 -1 68 -50 37 -85
118 -120 221 -94 l63 16 38 -35 c22 -20 49 -40 60 -47 16 -8 21 -20 21 -50 0
-47 45 -105 88 -113 39 -7 88 17 112 55 57 91 -43 193 -144 147 -23 -11 -30
-7 -85 40 l-59 52 16 39 17 40 140 0 140 0 15 -33 c9 -20 30 -39 54 -51 36
-17 43 -18 80 -5 113 39 110 186 -4 220 -47 14 -104 -8 -128 -51 l-17 -30
-140 0 -141 0 -13 45 c-16 53 -11 62 72 122 42 31 51 34 73 24 67 -30 149 5
173 75 17 49 10 84 -27 125 -23 26 -38 32 -78 36 -59 5 -90 -10 -122 -57 -19
-28 -23 -44 -18 -80 l5 -45 -65 -54 c-63 -53 -67 -54 -98 -43 -18 7 -60 12
-93 12 -50 0 -66 -5 -100 -29 -36 -26 -73 -82 -73 -110 0 -6 -19 -11 -44 -11
-49 0 -49 1 -61 80 -8 53 -59 160 -101 214 -43 56 -158 133 -231 156 -78 24
-171 32 -240 20z m1262 -147 c34 -52 -21 -98 -67 -56 -22 20 -23 41 -3 63 22
24 52 22 70 -7z m-962 -83 c56 -44 70 -131 47 -292 -13 -90 -13 -91 -27 -106
-7 -7 -13 -19 -13 -27 0 -12 -21 -32 -90 -89 -13 -10 -35 -20 -49 -21 -14 -1
-39 -8 -56 -15 -17 -7 -45 -9 -65 -5 -19 4 -43 7 -52 6 -10 0 -18 4 -18 10 0
5 -3 8 -7 7 -17 -3 -43 15 -36 25 4 6 0 8 -10 4 -11 -4 -14 -2 -10 9 3 8 2 14
-3 13 -18 -3 -37 1 -31 7 3 3 -5 17 -18 30 -26 26 -49 85 -43 111 3 13 8 9 20
-17 21 -48 64 -97 112 -128 36 -23 52 -26 131 -28 86 -1 91 0 136 32 82 59
126 148 116 233 -9 76 -25 101 -63 101 -66 0 -93 26 -94 88 0 32 -41 45 -124
39 -52 -3 -65 -2 -50 6 16 9 109 19 240 25 18 1 42 -6 57 -18z m580 -184 c-4
-5 1 -7 11 -3 12 5 20 -1 28 -18 6 -13 14 -23 17 -20 4 2 7 -5 7 -16 0 -23 -9
-24 -31 -3 -13 14 -14 19 -3 25 11 7 11 9 0 9 -7 0 -10 4 -7 10 3 6 -1 7 -10
3 -9 -3 -13 -9 -8 -12 16 -12 14 -35 -3 -48 -16 -12 -15 -13 9 -13 15 0 27 -5
27 -11 0 -6 9 -8 20 -4 11 4 20 2 20 -4 0 -6 -5 -11 -11 -11 -5 0 -7 -5 -4
-11 4 -5 -10 -2 -32 7 -21 10 -53 16 -72 16 -24 -2 -32 2 -28 11 6 16 -34 17
-46 2 -8 -10 2 43 10 58 3 4 13 5 23 2 10 -3 21 -1 25 4 3 7 0 8 -9 5 -22 -8
-20 13 2 25 21 13 73 10 65 -3z m-73 -130 c0 -2 -7 -7 -16 -10 -8 -3 -12 -2
-9 4 6 10 25 14 25 6z m64 -11 c3 -8 10 -15 16 -15 6 0 9 4 6 8 -7 11 31 8 41
-3 5 -4 3 -5 -4 -2 -6 4 -13 2 -15 -5 -5 -14 -48 -19 -45 -5 1 5 -3 11 -10 14
-8 3 -11 -3 -8 -17 3 -17 1 -20 -9 -11 -8 7 -19 10 -26 9 -7 -2 -15 4 -17 12
-3 11 -2 12 4 2 7 -10 14 -8 28 8 22 24 31 25 39 5z"/>
<path d="M2229 938 c-6 -22 -5 -39 3 -45 7 -3 8 -1 4 5 -4 7 -1 12 6 12 10 0
10 2 -1 9 -11 7 -11 9 0 14 10 4 10 6 2 6 -7 1 -13 0 -14 -1z"/>
<path d="M597 1194 c-4 -4 -7 -54 -7 -111 l0 -104 107 3 107 3 1 105 0 105
-101 3 c-55 1 -103 0 -107 -4z"/>
<path d="M854 1191 c-8 -8 -4 -211 4 -211 5 0 15 19 22 43 6 23 25 70 40 104
l28 61 -45 4 c-24 2 -46 1 -49 -1z"/>
<path d="M177 980 c-48 -46 -97 -95 -107 -111 l-20 -28 46 -50 47 -51 63 0
c59 0 64 2 65 23 4 104 4 256 -1 276 -5 22 -11 19 -93 -59z"/>
<path d="M310 840 l0 -100 120 0 120 0 0 100 0 100 -120 0 -120 0 0 -100z"/>
<path d="M590 840 l0 -100 110 0 110 0 0 100 0 100 -110 0 -110 0 0 -100z"/>
<path d="M851 843 c0 -57 2 -103 7 -103 4 0 6 37 4 83 -4 125 -9 134 -11 20z"/>
<path d="M196 692 c5 -4 24 -20 42 -36 l32 -30 0 37 c0 37 0 37 -42 37 -23 0
-38 -3 -32 -8z"/>
<path d="M312 648 c3 -50 5 -54 53 -90 64 -49 150 -92 170 -84 12 4 15 26 15
116 l0 110 -121 0 -120 0 3 -52z"/>
<path d="M590 595 l0 -106 108 3 107 3 3 103 3 102 -111 0 -110 0 0 -105z"/>
<path d="M850 595 l0 -105 65 0 65 0 -24 38 c-13 20 -36 67 -52 105 -42 98
-54 89 -54 -38z"/>
<path d="M2048 536 c-108 -105 -226 -178 -358 -220 -221 -71 -397 -48 -594 75
l-95 59 -233 -2 -233 -3 155 -76 c245 -120 374 -159 604 -180 171 -15 376 5
525 52 101 32 252 104 349 166 71 45 182 132 182 142 0 8 -178 81 -195 81 -6
0 -53 -43 -107 -94z"/>
</g>
</svg>
