<?xml version="1.0" standalone="no"?>
<!DOCTYPE svg PUBLIC "-//W3C//DTD SVG 20010904//EN"
 "http://www.w3.org/TR/2001/REC-SVG-20010904/DTD/svg10.dtd">
<svg version="1.0" xmlns="http://www.w3.org/2000/svg"
 width="413.000000pt" height="225.000000pt" viewBox="0 0 413.000000 225.000000"
 preserveAspectRatio="xMidYMid meet">

<g transform="translate(0.000000,225.000000) scale(0.100000,-0.100000)"
fill="#000000" stroke="none">
<path d="M1770 2010 c-222 -21 -482 -82 -662 -155 -196 -80 -436 -212 -615
-339 l-73 -51 0 -77 0 -78 155 0 155 0 0 165 0 165 275 0 276 0 97 70 c178
128 342 194 512 206 296 21 710 -123 1080 -377 l85 -58 35 21 c19 12 39 24 43
28 18 16 -274 215 -429 293 -272 136 -653 213 -934 187z"/>
<path d="M1810 1785 c-90 -20 -234 -94 -302 -155 -156 -140 -246 -372 -218
-564 22 -151 80 -264 199 -388 86 -91 130 -119 244 -159 74 -26 95 -29 213
-29 150 0 219 16 337 77 150 79 304 300 323 466 l7 57 63 0 63 0 32 -61 c64
-120 147 -155 293 -125 l83 18 82 -68 c72 -60 81 -71 81 -101 0 -42 31 -105
66 -132 83 -65 222 20 211 128 -9 89 -106 143 -201 111 -32 -10 -41 -9 -64 6
-48 31 -132 107 -132 120 0 7 9 33 20 58 l19 46 190 0 190 0 22 -40 c29 -51
105 -93 147 -80 114 32 161 118 114 210 -54 108 -212 107 -267 -1 l-16 -29
-191 2 -191 3 -15 52 c-19 69 -7 100 62 151 84 64 92 66 153 52 156 -38 274
116 186 243 -33 47 -74 67 -141 67 -97 0 -166 -82 -155 -184 l5 -53 -73 -62
c-89 -76 -110 -85 -156 -70 -18 6 -69 11 -113 11 -64 0 -85 -4 -114 -21 -45
-28 -84 -75 -107 -128 l-18 -43 -55 0 c-64 0 -67 3 -85 100 -16 87 -89 234
-147 299 -83 92 -215 175 -330 205 -86 24 -235 29 -314 11z m1715 -178 c50
-72 -29 -144 -90 -82 -27 26 -31 51 -12 76 31 40 76 43 102 6z m-1299 -103
c21 -10 45 -35 62 -63 23 -40 27 -59 31 -150 2 -57 -2 -145 -9 -195 -18 -138
-43 -181 -162 -285 -40 -35 -189 -72 -258 -64 -58 6 -128 37 -137 59 -2 7 -12
10 -21 7 -11 -5 -14 -2 -9 10 4 12 1 17 -12 17 -19 0 -73 69 -96 124 -16 37
-20 96 -7 96 4 0 23 -28 42 -62 35 -61 100 -127 155 -156 39 -21 218 -29 269
-12 53 17 147 109 178 172 32 68 40 122 28 189 -15 80 -36 103 -101 111 -62 7
-99 40 -99 87 0 16 -9 39 -19 52 -17 22 -29 24 -123 29 -116 6 -117 16 -1 30
175 22 249 23 289 4z m794 -254 c0 -5 6 -7 14 -4 17 6 77 -73 69 -92 -7 -18
-22 -18 -43 1 -15 14 -19 13 -35 -5 -18 -20 -18 -20 13 -20 18 0 32 -5 32 -11
0 -7 10 -9 25 -5 28 7 33 -7 10 -31 -14 -13 -20 -13 -62 1 -26 9 -64 16 -85
16 -28 0 -38 4 -38 16 0 13 -7 15 -34 11 l-34 -5 9 36 c5 20 9 40 9 45 0 4 6
7 14 7 7 0 21 11 30 25 14 21 25 25 61 25 25 0 45 -4 45 -10z m-100 -179 c0
-10 -30 -24 -37 -17 -3 3 -2 9 2 15 8 13 35 15 35 2z m91 -12 c8 -16 13 -18
19 -9 10 16 52 9 58 -10 3 -8 1 -12 -3 -8 -4 4 -17 1 -29 -7 -27 -20 -46 -19
-63 3 -13 16 -14 15 -8 -5 7 -26 3 -27 -42 -11 -18 7 -33 18 -33 26 0 7 5 10
10 7 6 -3 22 3 36 14 33 26 41 26 55 0z"/>
<path d="M2970 1209 c0 -5 5 -7 10 -4 6 3 10 8 10 11 0 2 -4 4 -10 4 -5 0 -10
-5 -10 -11z"/>
<path d="M3030 1210 c0 -13 18 -22 24 -11 3 5 -1 11 -9 15 -8 3 -15 1 -15 -4z"/>
<path d="M796 1568 c-3 -13 -6 -76 -6 -140 l0 -118 140 0 140 0 0 140 0 140
-134 0 c-130 0 -134 -1 -140 -22z"/>
<path d="M1140 1449 c0 -77 4 -128 9 -124 5 3 17 29 27 58 9 28 32 85 50 125
l33 72 -60 0 -59 0 0 -131z"/>
<path d="M205 1267 c-69 -68 -125 -130 -125 -139 0 -8 25 -43 56 -77 l56 -62
82 3 81 3 3 198 c2 171 0 197 -13 197 -8 0 -71 -56 -140 -123z"/>
<path d="M420 1120 l0 -130 155 0 155 0 0 130 0 130 -155 0 -155 0 0 -130z"/>
<path d="M790 1120 l0 -130 145 0 145 0 0 130 0 130 -145 0 -145 0 0 -130z"/>
<path d="M1143 1050 c0 -25 2 -35 4 -22 2 12 2 32 0 45 -2 12 -4 2 -4 -23z"/>
<path d="M286 922 c-3 -5 13 -26 34 -47 l40 -39 0 37 c0 26 -6 39 -19 47 -24
12 -48 13 -55 2z"/>
<path d="M420 878 c0 -29 6 -64 13 -78 15 -29 164 -132 226 -156 65 -25 71
-13 71 153 l0 133 -155 0 -155 0 0 -52z"/>
<path d="M790 791 l0 -139 138 5 c75 3 138 6 138 7 1 0 4 61 7 134 l5 132
-144 0 -144 0 0 -139z"/>
<path d="M1147 914 c-4 -4 -7 -65 -7 -136 l0 -128 79 0 78 0 -64 128 c-70 137
-76 146 -86 136z"/>
<path d="M2755 729 c-203 -184 -351 -273 -555 -329 -277 -77 -488 -41 -777
135 l-92 55 -301 -2 -301 -3 188 -89 c393 -187 561 -232 898 -243 358 -11 592
39 896 193 135 68 247 140 353 225 l67 53 -36 18 c-49 26 -205 88 -219 88 -6
0 -60 -45 -121 -101z"/>
</g>
</svg>
